<mxfile host="app.diagrams.net" agent="Mozilla/5.0 (Windows NT 10.0; Win64; x64) AppleWebKit/537.36 (KHTML, like Gecko) Chrome/140.0.0.0 Safari/537.36 Edg/140.0.0.0" version="28.2.3">
  <diagram name="Page-1" id="-6pM2tXbxNIwOpijwXQx">
    <mxGraphModel dx="1244" dy="714" grid="1" gridSize="10" guides="1" tooltips="1" connect="1" arrows="1" fold="1" page="1" pageScale="1" pageWidth="850" pageHeight="1100" math="0" shadow="0">
      <root>
        <mxCell id="0" />
        <mxCell id="1" parent="0" />
        <mxCell id="qg7lr1xRJvm0EPIztxWO-1" value="" style="ellipse;html=1;shape=startState;fillColor=#000000;strokeColor=#ff0000;" parent="1" vertex="1">
          <mxGeometry x="120" y="80" width="30" height="30" as="geometry" />
        </mxCell>
        <mxCell id="qg7lr1xRJvm0EPIztxWO-2" value="" style="edgeStyle=orthogonalEdgeStyle;html=1;verticalAlign=bottom;endArrow=open;endSize=8;strokeColor=#ff0000;rounded=0;" parent="1" source="qg7lr1xRJvm0EPIztxWO-1" edge="1">
          <mxGeometry relative="1" as="geometry">
            <mxPoint x="135" y="190" as="targetPoint" />
          </mxGeometry>
        </mxCell>
        <mxCell id="qg7lr1xRJvm0EPIztxWO-13" style="edgeStyle=orthogonalEdgeStyle;rounded=0;orthogonalLoop=1;jettySize=auto;html=1;entryX=0;entryY=0.5;entryDx=0;entryDy=0;endArrow=open;endFill=0;" parent="1" source="qg7lr1xRJvm0EPIztxWO-3" target="qg7lr1xRJvm0EPIztxWO-7" edge="1">
          <mxGeometry relative="1" as="geometry" />
        </mxCell>
        <mxCell id="qg7lr1xRJvm0EPIztxWO-3" value="Main screen" style="swimlane;childLayout=stackLayout;horizontal=1;startSize=40;horizontalStack=0;rounded=1;fontSize=14;fontStyle=0;strokeWidth=2;resizeParent=0;resizeLast=1;shadow=0;dashed=0;align=center;arcSize=4;whiteSpace=wrap;html=1;" parent="1" vertex="1">
          <mxGeometry x="70" y="190" width="130" height="80" as="geometry" />
        </mxCell>
        <mxCell id="qg7lr1xRJvm0EPIztxWO-5" style="edgeStyle=orthogonalEdgeStyle;rounded=0;orthogonalLoop=1;jettySize=auto;html=1;entryX=0.75;entryY=0;entryDx=0;entryDy=0;startArrow=open;startFill=0;endArrow=none;endFill=0;exitX=1;exitY=0.25;exitDx=0;exitDy=0;" parent="1" source="qg7lr1xRJvm0EPIztxWO-3" target="qg7lr1xRJvm0EPIztxWO-3" edge="1">
          <mxGeometry relative="1" as="geometry">
            <Array as="points">
              <mxPoint x="220" y="210" />
              <mxPoint x="220" y="170" />
              <mxPoint x="168" y="170" />
            </Array>
          </mxGeometry>
        </mxCell>
        <mxCell id="qg7lr1xRJvm0EPIztxWO-6" value="Insert Card ( Invalid Card )&amp;nbsp;" style="text;html=1;align=center;verticalAlign=middle;resizable=0;points=[];autosize=1;strokeColor=none;fillColor=none;" parent="1" vertex="1">
          <mxGeometry x="140" y="140" width="170" height="30" as="geometry" />
        </mxCell>
        <mxCell id="qg7lr1xRJvm0EPIztxWO-15" style="edgeStyle=orthogonalEdgeStyle;rounded=0;orthogonalLoop=1;jettySize=auto;html=1;entryX=0;entryY=0.5;entryDx=0;entryDy=0;startArrow=open;startFill=0;endArrow=open;endFill=0;" parent="1" source="qg7lr1xRJvm0EPIztxWO-7" target="qg7lr1xRJvm0EPIztxWO-8" edge="1">
          <mxGeometry relative="1" as="geometry" />
        </mxCell>
        <mxCell id="qg7lr1xRJvm0EPIztxWO-24" style="edgeStyle=orthogonalEdgeStyle;rounded=0;orthogonalLoop=1;jettySize=auto;html=1;entryX=0.5;entryY=0;entryDx=0;entryDy=0;endArrow=open;endFill=0;" parent="1" source="qg7lr1xRJvm0EPIztxWO-7" target="qg7lr1xRJvm0EPIztxWO-11" edge="1">
          <mxGeometry relative="1" as="geometry" />
        </mxCell>
        <mxCell id="qg7lr1xRJvm0EPIztxWO-7" value="Wait for PIN" style="swimlane;childLayout=stackLayout;horizontal=1;startSize=40;horizontalStack=0;rounded=1;fontSize=14;fontStyle=0;strokeWidth=2;resizeParent=0;resizeLast=1;shadow=0;dashed=0;align=center;arcSize=4;whiteSpace=wrap;html=1;" parent="1" vertex="1">
          <mxGeometry x="330" y="190" width="130" height="80" as="geometry" />
        </mxCell>
        <mxCell id="qg7lr1xRJvm0EPIztxWO-18" style="edgeStyle=orthogonalEdgeStyle;rounded=0;orthogonalLoop=1;jettySize=auto;html=1;entryX=0.5;entryY=0;entryDx=0;entryDy=0;endArrow=open;endFill=0;" parent="1" source="qg7lr1xRJvm0EPIztxWO-8" target="qg7lr1xRJvm0EPIztxWO-9" edge="1">
          <mxGeometry relative="1" as="geometry" />
        </mxCell>
        <mxCell id="qg7lr1xRJvm0EPIztxWO-8" value="Wait for account verification" style="swimlane;childLayout=stackLayout;horizontal=1;startSize=40;horizontalStack=0;rounded=1;fontSize=14;fontStyle=0;strokeWidth=2;resizeParent=0;resizeLast=1;shadow=0;dashed=0;align=center;arcSize=4;whiteSpace=wrap;html=1;" parent="1" vertex="1">
          <mxGeometry x="620" y="190" width="220" height="80" as="geometry" />
        </mxCell>
        <mxCell id="qg7lr1xRJvm0EPIztxWO-20" style="edgeStyle=orthogonalEdgeStyle;rounded=0;orthogonalLoop=1;jettySize=auto;html=1;entryX=0.5;entryY=0;entryDx=0;entryDy=0;" parent="1" source="qg7lr1xRJvm0EPIztxWO-9" target="qg7lr1xRJvm0EPIztxWO-10" edge="1">
          <mxGeometry relative="1" as="geometry" />
        </mxCell>
        <mxCell id="qg7lr1xRJvm0EPIztxWO-25" style="edgeStyle=orthogonalEdgeStyle;rounded=0;orthogonalLoop=1;jettySize=auto;html=1;endArrow=open;endFill=0;" parent="1" source="qg7lr1xRJvm0EPIztxWO-9" target="qg7lr1xRJvm0EPIztxWO-11" edge="1">
          <mxGeometry relative="1" as="geometry" />
        </mxCell>
        <mxCell id="qg7lr1xRJvm0EPIztxWO-9" value="Wait for selecting services" style="swimlane;childLayout=stackLayout;horizontal=1;startSize=40;horizontalStack=0;rounded=1;fontSize=14;fontStyle=0;strokeWidth=2;resizeParent=0;resizeLast=1;shadow=0;dashed=0;align=center;arcSize=4;whiteSpace=wrap;html=1;" parent="1" vertex="1">
          <mxGeometry x="620" y="330" width="220" height="80" as="geometry" />
        </mxCell>
        <mxCell id="qg7lr1xRJvm0EPIztxWO-22" style="edgeStyle=orthogonalEdgeStyle;rounded=0;orthogonalLoop=1;jettySize=auto;html=1;entryX=1;entryY=0.5;entryDx=0;entryDy=0;endArrow=open;endFill=0;" parent="1" source="qg7lr1xRJvm0EPIztxWO-10" target="qg7lr1xRJvm0EPIztxWO-12" edge="1">
          <mxGeometry relative="1" as="geometry" />
        </mxCell>
        <mxCell id="qg7lr1xRJvm0EPIztxWO-26" style="edgeStyle=orthogonalEdgeStyle;rounded=0;orthogonalLoop=1;jettySize=auto;html=1;entryX=1;entryY=1;entryDx=0;entryDy=0;endArrow=open;endFill=0;" parent="1" source="qg7lr1xRJvm0EPIztxWO-10" target="qg7lr1xRJvm0EPIztxWO-11" edge="1">
          <mxGeometry relative="1" as="geometry">
            <Array as="points">
              <mxPoint x="540" y="470" />
              <mxPoint x="540" y="410" />
            </Array>
          </mxGeometry>
        </mxCell>
        <mxCell id="qg7lr1xRJvm0EPIztxWO-10" value="Wait for entering amount" style="swimlane;childLayout=stackLayout;horizontal=1;startSize=40;horizontalStack=0;rounded=1;fontSize=14;fontStyle=0;strokeWidth=2;resizeParent=0;resizeLast=1;shadow=0;dashed=0;align=center;arcSize=4;whiteSpace=wrap;html=1;" parent="1" vertex="1">
          <mxGeometry x="620" y="470" width="220" height="80" as="geometry" />
        </mxCell>
        <mxCell id="qg7lr1xRJvm0EPIztxWO-30" style="edgeStyle=orthogonalEdgeStyle;rounded=0;orthogonalLoop=1;jettySize=auto;html=1;endArrow=open;endFill=0;" parent="1" source="qg7lr1xRJvm0EPIztxWO-11" edge="1">
          <mxGeometry relative="1" as="geometry">
            <mxPoint x="190" y="270" as="targetPoint" />
          </mxGeometry>
        </mxCell>
        <mxCell id="qg7lr1xRJvm0EPIztxWO-11" value="Cancel" style="swimlane;childLayout=stackLayout;horizontal=1;startSize=40;horizontalStack=0;rounded=1;fontSize=14;fontStyle=0;strokeWidth=2;resizeParent=0;resizeLast=1;shadow=0;dashed=0;align=center;arcSize=4;whiteSpace=wrap;html=1;" parent="1" vertex="1">
          <mxGeometry x="330" y="330" width="130" height="80" as="geometry" />
        </mxCell>
        <mxCell id="qg7lr1xRJvm0EPIztxWO-32" style="edgeStyle=orthogonalEdgeStyle;rounded=0;orthogonalLoop=1;jettySize=auto;html=1;entryX=0.5;entryY=1;entryDx=0;entryDy=0;endArrow=open;endFill=0;" parent="1" source="qg7lr1xRJvm0EPIztxWO-12" target="qg7lr1xRJvm0EPIztxWO-3" edge="1">
          <mxGeometry relative="1" as="geometry" />
        </mxCell>
        <mxCell id="qg7lr1xRJvm0EPIztxWO-12" value="Process Transaction" style="swimlane;childLayout=stackLayout;horizontal=1;startSize=40;horizontalStack=0;rounded=1;fontSize=14;fontStyle=0;strokeWidth=2;resizeParent=0;resizeLast=1;shadow=0;dashed=0;align=center;arcSize=4;whiteSpace=wrap;html=1;" parent="1" vertex="1">
          <mxGeometry x="330" y="470" width="130" height="80" as="geometry" />
        </mxCell>
        <mxCell id="qg7lr1xRJvm0EPIztxWO-14" value="Inser Card ( Valid )" style="text;html=1;align=center;verticalAlign=middle;resizable=0;points=[];autosize=1;strokeColor=none;fillColor=none;" parent="1" vertex="1">
          <mxGeometry x="200" y="228" width="120" height="30" as="geometry" />
        </mxCell>
        <mxCell id="qg7lr1xRJvm0EPIztxWO-16" value="Enter PIN" style="text;html=1;align=center;verticalAlign=middle;resizable=0;points=[];autosize=1;strokeColor=none;fillColor=none;" parent="1" vertex="1">
          <mxGeometry x="500" y="198" width="80" height="30" as="geometry" />
        </mxCell>
        <mxCell id="qg7lr1xRJvm0EPIztxWO-17" value="Bad PIN" style="text;html=1;align=center;verticalAlign=middle;resizable=0;points=[];autosize=1;strokeColor=none;fillColor=none;" parent="1" vertex="1">
          <mxGeometry x="505" y="240" width="70" height="30" as="geometry" />
        </mxCell>
        <mxCell id="qg7lr1xRJvm0EPIztxWO-19" value="Account OK" style="text;html=1;align=center;verticalAlign=middle;resizable=0;points=[];autosize=1;strokeColor=none;fillColor=none;" parent="1" vertex="1">
          <mxGeometry x="730" y="288" width="90" height="30" as="geometry" />
        </mxCell>
        <mxCell id="qg7lr1xRJvm0EPIztxWO-21" value="Select withdraw money" style="text;html=1;align=center;verticalAlign=middle;resizable=0;points=[];autosize=1;strokeColor=none;fillColor=none;" parent="1" vertex="1">
          <mxGeometry x="730" y="428" width="150" height="30" as="geometry" />
        </mxCell>
        <mxCell id="qg7lr1xRJvm0EPIztxWO-23" value="Enter Amount" style="text;html=1;align=center;verticalAlign=middle;resizable=0;points=[];autosize=1;strokeColor=none;fillColor=none;" parent="1" vertex="1">
          <mxGeometry x="490" y="480" width="100" height="30" as="geometry" />
        </mxCell>
        <mxCell id="qg7lr1xRJvm0EPIztxWO-27" value="User cancel action" style="text;html=1;align=center;verticalAlign=middle;resizable=0;points=[];autosize=1;strokeColor=none;fillColor=none;" parent="1" vertex="1">
          <mxGeometry x="400" y="288" width="120" height="30" as="geometry" />
        </mxCell>
        <mxCell id="qg7lr1xRJvm0EPIztxWO-28" value="User cancel action" style="text;html=1;align=center;verticalAlign=middle;resizable=0;points=[];autosize=1;strokeColor=none;fillColor=none;" parent="1" vertex="1">
          <mxGeometry x="480" y="340" width="120" height="30" as="geometry" />
        </mxCell>
        <mxCell id="qg7lr1xRJvm0EPIztxWO-29" value="User cancel action" style="text;html=1;align=center;verticalAlign=middle;resizable=0;points=[];autosize=1;strokeColor=none;fillColor=none;" parent="1" vertex="1">
          <mxGeometry x="540" y="428" width="120" height="30" as="geometry" />
        </mxCell>
        <mxCell id="qg7lr1xRJvm0EPIztxWO-31" value="Operation Cancel" style="text;html=1;align=center;verticalAlign=middle;resizable=0;points=[];autosize=1;strokeColor=none;fillColor=none;" parent="1" vertex="1">
          <mxGeometry x="190" y="338" width="120" height="30" as="geometry" />
        </mxCell>
        <mxCell id="qg7lr1xRJvm0EPIztxWO-33" value="Transaction Sucess" style="text;html=1;align=center;verticalAlign=middle;resizable=0;points=[];autosize=1;strokeColor=none;fillColor=none;" parent="1" vertex="1">
          <mxGeometry x="160" y="470" width="130" height="30" as="geometry" />
        </mxCell>
      </root>
    </mxGraphModel>
  </diagram>
</mxfile>
